<?xml version="1.0" standalone="no"?>
<!DOCTYPE svg PUBLIC "-//W3C//DTD SVG 20010904//EN"
 "http://www.w3.org/TR/2001/REC-SVG-20010904/DTD/svg10.dtd">
<svg version="1.0" xmlns="http://www.w3.org/2000/svg"
 width="224.000000pt" height="224.000000pt" viewBox="0 0 224.000000 224.000000"
 preserveAspectRatio="xMidYMid meet">

<g transform="translate(0.000000,224.000000) scale(0.100000,-0.100000)"
fill="#000000" stroke="none">
<path d="M0 1120 l1 -1120 1119 0 1120 0 0 1120 0 1120 -1120 0 -1120 0 0
-1120z m1325 738 c477 -141 682 -755 394 -1175 -51 -73 -166 -180 -237 -220
-36 -20 -104 -50 -151 -67 -81 -29 -95 -31 -226 -30 -126 0 -148 3 -220 28
-275 94 -474 334 -514 620 -15 104 -14 157 4 261 53 303 289 544 590 601 101
19 261 12 360 -18z m-1264 -1818 c6 0 7 5 3 12 -4 7 -3 8 5 4 9 -6 9 -11 0
-22 -16 -19 -29 -8 -28 24 2 24 2 24 6 5 2 -13 9 -23 14 -23z"/>
<path d="M935 1821 l-60 -16 -3 -283 c-2 -246 0 -282 13 -282 12 0 15 16 16
83 1 45 1 90 0 99 -2 14 8 18 49 20 l51 3 0 194 c0 106 -1 194 -3 196 -2 1
-30 -5 -63 -14z"/>
<path d="M1060 1640 l0 -200 85 0 85 0 0 33 c0 28 -8 41 -50 76 l-50 42 0 125
0 124 -35 0 -35 0 0 -200z"/>
<path d="M1170 1736 l0 -104 55 -53 c50 -48 55 -56 55 -96 0 -44 0 -44 33 -41
l32 3 0 180 0 180 -65 17 c-116 30 -110 34 -110 -86z"/>
<path d="M755 1744 c-123 -74 -203 -158 -270 -286 -51 -97 -75 -200 -75 -325
l0 -103 35 0 c22 0 35 -5 35 -13 0 -9 -10 -12 -30 -9 -26 4 -30 1 -30 -20 0
-32 35 -140 65 -198 37 -73 110 -164 177 -219 113 -94 285 -161 411 -161 l57
0 0 55 c0 54 0 55 -30 55 -25 0 -30 4 -30 25 0 24 2 25 65 25 59 0 65 -2 65
-21 0 -12 -8 -23 -20 -26 -17 -5 -20 -14 -20 -60 l0 -56 50 7 c28 4 90 20 138
37 48 17 95 31 104 32 9 1 14 5 12 9 -3 4 2 8 11 8 9 0 14 4 11 9 -8 13 20 21
32 9 16 -16 60 19 67 53 4 16 16 34 27 40 15 8 19 8 14 0 -4 -6 -5 -11 -2 -11
3 0 10 10 17 21 8 16 8 20 -1 14 -6 -4 4 15 23 41 162 228 186 522 63 779 -40
85 -111 180 -168 227 -56 46 -138 98 -155 98 -10 0 -13 -37 -13 -170 l0 -170
68 0 c40 0 73 -5 80 -12 9 -9 12 -108 12 -385 l0 -374 -23 -23 c-22 -22 -35
-24 -178 -31 -184 -8 -213 -6 -217 18 -3 16 10 17 167 17 162 0 171 1 191 22
22 24 21 5 23 328 l2 185 -408 5 -407 5 0 -252 0 -252 26 -20 c25 -19 40 -21
201 -21 161 0 174 -1 171 -17 -3 -16 -20 -18 -195 -18 l-193 0 -27 28 -28 27
-3 361 c-3 431 -9 409 98 409 l70 0 0 170 c0 94 -1 170 -3 170 -2 0 -30 -16
-62 -36z m779 -120 c9 -8 16 -22 16 -29 0 -8 11 -20 25 -27 13 -7 36 -29 50
-48 l25 -34 0 -383 c0 -334 -2 -383 -15 -383 -13 0 -15 49 -15 379 0 217 -4
390 -10 405 -12 32 -50 57 -94 61 -42 4 -56 11 -56 30 0 17 27 45 45 45 7 0
21 -7 29 -16z m-794 -29 c0 -11 -11 -15 -43 -15 -77 0 -82 -12 -80 -216 2
-146 0 -174 -12 -174 -13 0 -15 27 -15 168 0 149 2 170 20 200 22 36 49 50 98
51 22 1 32 -4 32 -14z m-180 -280 c0 -52 -1 -55 -25 -55 -24 0 -25 3 -25 55 0
52 1 55 25 55 24 0 25 -3 25 -55z m1164 19 c3 -9 6 -49 6 -90 0 -67 -2 -74
-20 -74 -19 0 -20 7 -20 90 0 70 3 90 14 90 8 0 17 -7 20 -16z m-856 -201 c-3
-27 -6 -28 -65 -31 l-63 -3 0 31 0 30 66 0 65 0 -3 -27z m97 -3 c0 -20 -5 -25
-25 -25 -27 0 -30 4 -30 36 0 16 5 20 28 17 21 -2 27 -8 27 -28z m95 0 c0 -25
-4 -30 -25 -30 -14 0 -28 7 -31 15 -10 25 4 45 31 45 21 0 25 -5 25 -30z m128
6 c5 -23 -14 -36 -51 -36 -29 0 -43 19 -33 46 9 23 80 15 84 -10z m107 -6 c0
-21 -5 -26 -32 -28 -31 -3 -33 -1 -33 28 0 29 2 31 33 28 27 -2 32 -7 32 -28z
m-694 4 c10 -12 10 -20 1 -35 -14 -21 -16 -125 -4 -133 5 -3 9 -60 10 -128 2
-84 -1 -118 -8 -108 -5 8 -10 48 -10 88 0 67 -2 73 -24 81 -34 14 -42 42 -17
63 17 13 21 28 21 72 0 44 -3 56 -15 56 -24 0 -31 31 -10 46 25 18 40 18 56
-2z m869 -4 c0 -18 -7 -20 -65 -20 -58 0 -65 2 -65 20 0 18 7 20 65 20 58 0
65 -2 65 -20z m260 -35 c0 -8 -9 -15 -20 -15 -11 0 -20 7 -20 15 0 8 9 15 20
15 11 0 20 -7 20 -15z m-790 -61 c0 -20 -5 -24 -30 -24 -25 0 -30 4 -30 24 0
18 6 26 23 28 31 5 37 1 37 -28z m200 0 c0 -21 -5 -24 -35 -24 -30 0 -35 3
-35 23 0 31 4 34 40 29 24 -3 30 -9 30 -28z m-302 -6 c3 -27 2 -28 -47 -28
-47 0 -51 2 -51 23 0 33 9 38 55 35 35 -3 40 -6 43 -30z m192 7 c0 -20 -5 -25
-25 -25 -20 0 -25 5 -25 25 0 20 5 25 25 25 20 0 25 -5 25 -25z m230 0 c0 -22
-4 -25 -40 -25 -22 0 -40 4 -40 9 0 28 14 41 46 41 30 0 34 -3 34 -25z m100 0
c0 -22 -4 -25 -35 -25 -27 0 -35 4 -35 18 0 25 9 32 42 32 23 0 28 -4 28 -25z
m120 0 c0 -22 -4 -25 -35 -25 -31 0 -35 3 -35 25 0 22 4 25 35 25 31 0 35 -3
35 -25z m240 -75 c0 -47 -3 -60 -15 -60 -11 0 -15 13 -15 53 0 30 3 57 7 60
17 17 23 2 23 -53z m-416 4 c20 -20 20 -29 0 -49 -27 -26 -49 -15 -52 28 -3
31 0 37 17 37 11 0 27 -7 35 -16z m-366 -26 c-2 -28 -7 -33 -28 -33 -21 0 -26
5 -28 33 -3 30 -1 32 28 32 29 0 31 -2 28 -32z m92 -3 c0 -31 -3 -35 -25 -35
-22 0 -25 4 -25 35 0 31 3 35 25 35 22 0 25 -4 25 -35z m91 25 c5 -48 3 -55
-21 -55 -25 0 -37 22 -26 51 6 16 45 19 47 4z m87 -22 c-2 -25 -8 -33 -23 -33
-15 0 -21 8 -23 33 -3 29 -1 32 23 32 24 0 26 -3 23 -32z m252 9 c0 -7 5 -5
10 3 8 12 10 9 10 -12 0 -28 -1 -28 -65 -28 -61 0 -65 1 -65 23 0 13 2 26 4
28 10 9 106 -4 106 -14z m-620 -22 c0 -23 -3 -25 -50 -25 -47 0 -50 2 -50 25
0 23 3 25 50 25 47 0 50 -2 50 -25z m628 -67 c15 -2 16 -48 1 -48 -5 0 -8 4
-5 9 3 4 -12 5 -34 1 -37 -7 -40 -6 -40 15 0 30 10 38 40 30 14 -3 31 -6 38
-7z m-652 -8 c30 0 34 -3 34 -25 0 -24 -3 -25 -55 -25 -51 0 -55 2 -55 23 0
29 9 39 28 32 7 -3 29 -5 48 -5z m132 -23 c3 -21 -1 -27 -15 -27 -29 0 -44 20
-32 42 15 27 43 18 47 -15z m287 20 c37 -28 7 -37 -116 -37 l-119 0 0 25 0 25
108 0 c75 0 114 -4 127 -13z m99 7 c9 -3 16 -17 16 -30 0 -20 -5 -24 -30 -24
-27 0 -30 3 -30 30 0 30 11 37 44 24z m-304 -119 l0 -25 -100 0 c-90 0 -100 2
-100 18 0 10 3 22 7 25 3 4 48 7 100 7 93 0 93 0 93 -25z m243 6 c3 -11 2 -22
-1 -25 -3 -3 -50 -6 -104 -6 -88 0 -98 2 -98 18 0 10 3 22 7 25 3 4 48 7 99 7
82 0 92 -2 97 -19z m177 -2 c15 -28 -4 -53 -30 -39 -21 11 -20 37 1 51 18 11
17 12 29 -12z m-666 -5 c8 -21 -1 -34 -25 -34 -14 0 -19 7 -19 25 0 29 34 36
44 9z m66 -176 c141 8 135 8 135 -13 0 -19 -7 -20 -120 -20 -119 0 -120 0
-123 24 -4 22 -2 23 35 15 21 -4 54 -7 73 -6z m618 -11 c3 -14 -6 -17 -56 -17
-33 0 -80 -3 -106 -6 -45 -7 -46 -6 -46 21 l0 27 102 -4 c86 -4 104 -7 106
-21z m101 0 c-2 -1 -13 -9 -24 -17 -19 -14 -19 -14 -6 3 7 9 18 17 24 17 6 0
8 -1 6 -3z"/>
<path d="M758 1393 l-58 -4 0 -90 c0 -82 1 -89 16 -75 9 10 33 16 60 16 l44 0
0 80 c0 44 -1 79 -2 78 -2 -1 -29 -3 -60 -5z"/>
<path d="M973 1392 c-21 -3 -23 -8 -23 -78 l0 -74 28 0 28 0 -2 76 c-1 41 -3
76 -5 77 -2 2 -14 1 -26 -1z"/>
<path d="M1060 1318 l0 -78 29 0 c28 0 28 2 35 65 8 75 2 90 -36 90 l-28 1 0
-78z"/>
<path d="M1175 1392 c-3 -3 -5 -38 -5 -79 l0 -73 30 0 30 0 0 74 c0 70 -1 74
-25 78 -13 3 -27 3 -30 0z"/>
<path d="M1280 1320 l0 -81 33 3 32 3 0 75 0 75 -32 3 -33 3 0 -81z"/>
<path d="M1390 1320 l0 -80 60 0 60 0 0 80 0 80 -60 0 -60 0 0 -80z"/>
</g>
</svg>
